<?xml version="1.0" encoding="UTF-8"?>
<svg id="Calque_2" xmlns="http://www.w3.org/2000/svg" viewBox="0 0 179.95 180">
  <defs>
    <style>
      .cls-1 {
        fill: #f15a24;
      }
    </style>
  </defs>
  <g id="Calque_1-2" data-name="Calque_1">
    <g>
      <path class="cls-1" d="M133.06,27.34l11.08-1.35c.09,0,.21.05.31.09.11.05.19.1.19.1l7.38,8.34c.31.35.89.19.97-.27l2.12-10.93c0-.16.31-.39.31-.39l10.23-4.44c.43-.19.43-.77.04-1.01l-9.73-5.41c-.16-.08-.27-.43-.27-.43l-1.08-11.12-.04-.04c-.04-.46-.58-.66-.93-.35l-8.15,7.61s-.06.05-.1.07l-.13.04h-.05c-.12.04-.23.04-.23.04l-10.89-2.43c-.13-.03-.26-.01-.37.04-.08.04-.15.1-.2.17-.05.07-.09.16-.1.26,0,.04,0,.08,0,.13l.02.1.03.07,4.71,10.12c.12.15,0,.5,0,.5l-5.68,9.62c-.23.42.08.89.54.85Z"/>
      <path class="cls-1" d="M130.58,66.17h.03c.24-.15.48-.28.71-.42,1.47-1.51,2.82-3.09,3.71-5.17.36-.26.64-.6.91-.95l.22-.29c.14-.19.29-.38.44-.55.16-.18.33-.35.52-.5.03-.26.1-.49.2-.69.08-.18.18-.34.28-.49l.16-.23c.27-.38.54-.76.63-1.32.03-.3-.07-.46-.18-.62-.05-.09-.11-.17-.14-.27-.05-.14-.06-.32.01-.57l.12-.12c-.12-.34-.32-.6-.55-.81-.08-.07-.17-.15-.27-.21-.15-.1-.3-.2-.46-.29.46-.5-.04-1.08-.36-1.45l-.14-.17c-1.12-.35-2.97-.62-3.71-.81.12,0,.19,0,.15-.16.12,0,.19-.15.16-.31.11-.25.24-.48.38-.71.15-.24.31-.47.48-.7l.11-.15c.39-.55.76-1.11.97-1.84l.04-.03c.22-.19.44-.38.65-.58.25-.24.48-.5.68-.8.38-.58.62-1.3.56-2.3-.14-.14-.32-.18-.48-.15-.23.04-.44.23-.49.46-.19.03-.35.1-.48.2-.18.14-.29.34-.33.61-.47.16-.75.48-1.04.8-.22.24-.44.49-.73.67-1.58,2.32-3.17,4.6-4.83,6.8-.3,1-.77,1.84-1.23,2.68-.53.97-1.07,1.93-1.36,3.15-.77,2.01-1.78,3.82-2.9,5.48-1.37,3.35-7.39,12.89-10.55,17.9l-1.42,2.26c-.33.56-.67,1.11-1.02,1.64-.36.56-.74,1.11-1.11,1.66-.6.87-1.21,1.72-1.81,2.57-3.31,4.63-6.61,9.27-7.87,15.94-.66,1.2-1.55,2.24-2.28,3.4-.46.48-.59.75-.78,1.16-.09.19-.19.4-.34.67-.08.15-.17.31-.29.49l-.18.28-.28.43-.34.48c-.08.34-.31.58-.54.82-.2.21-.39.41-.5.68-1.24,1.24-2.72,2.26-4.21,3.28l-.39.27-1.04-.47c-1.35-2.9-2.2-5.37-.77-6.68l.15-.12c.17-.05.34-.09.5-.13l.42-.08c.31-.06.62-.12.93-.21.32-.09.66-.2.96-.36.17-.09.32-.19.45-.32.09-.09.17-.19.24-.3l.04-.08.05-.11c.23-.58,0-1.24-.27-1.81-.39-.85-.85-1.66-1.35-2.43-.19-.31-.39-.62-.42-.96,0-.11.02-.24.04-.36.02-.13.04-.26.04-.39,0-.12-.02-.23-.09-.33-.16-.27-.5-.39-.54-.66,0-.12.04-.27.08-.39.06-.27-.02-.52-.15-.75-.08-.14-.18-.28-.28-.42l-.02-.03-.19-.27c-.05-.07-.1-.15-.14-.23-.04-.08-.08-.16-.1-.25-.04-.12-.06-.24-.04-.37,0-.35.23-.62.39-.93.03-.06.05-.12.07-.19.03-.09.04-.18.05-.28,0-.09,0-.18-.04-.26-.03-.09-.08-.17-.16-.24l-.09-.06-.14-.07-.15-.07c-.31-.1-.63-.22-.93-.36-.38-.16-.74-.36-1.08-.58-.16-.1-.3-.21-.45-.33-.14-.11-.27-.23-.4-.36-.77-.77-1.31-1.89-1.16-3.01v-.16c.02-.12.03-.24,0-.34-.04-.23-.23-.39-.38-.54,0,0-3.32-5.06-10.93-3.24l-.82.18c-4.3.9-15.04,3.13-13.16,16.97,1.16,6.76,11.97,12.67,14.83,12.98-1.47.5-3.52.96-5.77,1.46-5.48,1.22-12.11,2.69-14.27,5.76-3.01,4.33-12.13,16.3-14.83,17.57-4.06,1.16-8.65,3.75-12.4,7.33-1.36,1.31-3.1,2.77-4.87,4.25l-.1.08c-.91.76-1.82,1.53-2.69,2.28-1.15,1-2.23,1.98-3.12,2.89-.04.01-.07.03-.1.05l-.05.04-.04.04-.04.06c-.92.49-1.99.71-3.06.94l-.84.18-.75.17-.52.1c-.39.08-.77.15-1.15.24-.51.12-1,.25-1.44.42-1.19.45-1.79,1.33-2.42,2.25l-.39.57-.36.47c-.19.24-.38.48-.55.73-.24.34-.46.69-.64,1.08-.35.35-.54.81-.81,1.2-.12.18-.27.33-.41.49l-.24.27c-.09.1-.16.21-.23.32l-.08.14-.12.23-.14.33-.1.25-.1.21c-.04.09-.1.18-.16.28-.17.29-.37.6-.19.92.13-.05.27-.06.4-.07.13-.01.27-.02.41-.06.1-.03.2-.07.31-.14.39-.19.66-.54.85-.89l.41-.57.21-.28.18-.23c.08-.1.17-.2.26-.29.14-.15.3-.3.48-.45.32-.24.49-.5.67-.76.16-.24.33-.48.61-.71-.31.7-.93,1.35-1.58,2.01-.08.5-.31.96-.7,1.39,0,.16-.1.33-.19.51-.16.3-.31.58.03.73,1.24.43,1.89-1.27,2.12-1.89.47-.31.77-.67,1.06-1.02.33-.39.65-.78,1.22-1.11.07-.01.1,0,.1.01,0,.01,0,.02-.01.04l-.03.04c-.04.06-.1.14-.06.21-.09.06-.13.13-.17.2-.04.08-.09.16-.21.23-.08.27-.35.5-.27.81-.31.47-.81,1.27-.23,1.58.7-.08,1.2-.77,1.43-1.24,0-.29.22-.53.44-.77l.1-.11.1-.12.06-.07c.11-.15.18-.3.18-.47h.04s.06,0,.06,0h.09c.07-.03.14-.07.21-.12.1-.07.18-.17.26-.26l.12-.13c.15-.43.73,0,1.12-.27.46-.23.89-.19,1.39-.58,1.7-.12,3.44-.43,5.37-1.58.42-.31.77-.62,1.08-.96,1.29-.61,2.77-1.27,4.34-1.96,7.08-3.13,16.22-7.18,20.29-12.52l2.75-1.68.07-.04.05-.03c7.22-4.42,13.98-8.56,16.03-11.22,1.22,3.31,2.42,6.36,3.54,9.21,4.05,10.29,7.05,17.92,6.27,25.82-.79,2.01-1.81,3.94-2.95,6.11-.37.7-.75,1.42-1.13,2.18h29.23l-.1-.9c-.15-1.28-.29-2.49-.41-3.6-.23-2.13-.38-3.91-.38-5.19.09-1.63.83-3.71,1.77-6.34,1.79-5.05,4.3-12.1,4.3-21.78,0-8.54.15-14.41.23-17.18l.07-.19.38-.99.3-.74c.51-1.24,1.07-2.42,1.84-3.44.37-.73.66-1.35.9-1.89.24-.53.42-.96.56-1.33l.3-.78.1-.27.04-.11.1-.22c.93-1.66.7-2.28,1.12-4.44,1.39-2.66,2.55-5.52,4.67-7.45,2.01-4.21,3.74-8.84,5.33-13.6,1.58-4.67,9.46-18.42,11.66-22.55.4-.33.87-.59,1.34-.85Z"/>
      <path class="cls-1" d="M100.75,35.14l.04.05s.04.04.07.05l5.29,3.24.05.04.04.06.04.08.02.05.35,6.18h.04c0,.08.04.15.09.2.11.1.28.13.41.03l4.71-4.02s.07-.05.11-.06l.09-.02h.07s5.99,1.58,5.99,1.58c.23.08.46-.19.35-.43l-2.39-5.71s-.04-.1-.03-.16l.02-.07v-.04s3.37-5.21,3.37-5.21c.15-.19,0-.46-.27-.46l-6.18.5c-.05,0-.11-.02-.16-.05l-.07-.04-.04-.03-3.9-4.83c-.16-.19-.46-.11-.54.12l-1.43,6.02s-.04.08-.07.12l-.07.07-.05.04-5.79,2.24c-.13.04-.2.18-.19.3,0,.04.01.08.03.11v.02Z"/>
      <path class="cls-1" d="M115.03,10.99l-.16,1.74c0,.11.04.23.16.31.02.02.08.04.12.04.04,0,.16-.04.16-.04l1.47-.93,1.62.7c.12.08.27.04.35-.04.12-.08.12-.31.12-.31l-.43-1.7,1.16-1.31.02-.06c.03-.1.05-.19.02-.29-.04-.11-.27-.19-.27-.19l-1.74-.12-.89-1.51c-.08-.11-.19-.15-.31-.15s-.27.19-.27.19l-.66,1.62-1.7.38-.1.05s-.06.04-.08.06c-.03.04-.05.07-.05.12,0,.11.12.31.12.31l1.35,1.12Z"/>
      <path class="cls-1" d="M179.94,24.04c-.04-.11-.27-.19-.27-.19l-1.74-.12-.89-1.51c-.08-.11-.19-.16-.31-.16s-.27.19-.27.19l-.66,1.62-1.7.39c-.12.04-.23.12-.23.23s.12.31.12.31l1.35,1.12-.16,1.74s0,.09.02.13c.02.07.06.13.14.18l.03.02s.06.02.09.02h.06s.09-.04.09-.04l1.47-.93,1.62.7c.08.05.17.05.25.02.04-.01.07-.04.1-.06.05-.03.08-.09.09-.15.02-.08.02-.16.02-.16l-.42-1.7,1.16-1.31c.04-.12.08-.23.04-.35Z"/>
      <polygon class="cls-1" points="152.84 67.98 152.78 67.98 152.76 67.98 152.84 67.98"/>
      <path class="cls-1" d="M159.05,61.69l-2.59-.15-1.35-2.24c-.08-.16-.23-.23-.42-.23-.04.01-.08.03-.12.06l-.07.05c-.11.09-.2.19-.2.19l-.96,2.43-2.55.58c-.16.04-.31.15-.35.35-.02.06,0,.15.04.23.05.12.12.23.12.23l2.01,1.66-.23,2.59c0,.19.08.38.23.47.05.05.13.06.18.07h.08s.08-.03.08-.03l.09-.04,2.2-1.39,2.39,1.04c.09.04.18.05.26.03.09-.01.16-.05.24-.11.15-.12.15-.47.15-.47l-.66-2.55,1.74-1.97c.08-.16.16-.35.08-.5-.04-.19-.39-.31-.39-.31Z"/>
      <path class="cls-1" d="M169.98,39.07s-.06-.05-.08-.08l-.03-.07-.46-3.94c-.04-.16-.35-.11-.35-.11l-2.86,2.78s-.08.03-.12.03h-.08s-3.9-.77-3.9-.77c-.07-.01-.11.01-.15.06-.07.08-.08.21-.08.21l1.74,3.55v.19l-1.93,3.47s-.02.06,0,.1c0,.02.02.05.04.07.06.08.17.14.17.14l3.94-.58.05.02.04.02.06.04,2.7,2.9h.08c.12.12.35-.11.35-.11l.7-3.9c0-.08.12-.16.12-.16l3.59-1.66c.15-.08,0-.35,0-.35l-3.52-1.86Z"/>
      <path class="cls-1" d="M150.69,70.96c-.15.16-.31.37-.44.61,0,0-23.48,40.59-23.25,40.74.23.15,24.14-40.2,24.14-40.2.38-.7.5-1.35.27-1.51-.15-.1-.43.04-.72.35Z"/>
      <path class="cls-1" d="M102.21,41.42c-.15-.08-.5.19-.77.66l-15.15,26.57c1.09-1.51,15.73-26.23,15.73-26.23.27-.47.35-.89.19-1Z"/>
      <path class="cls-1" d="M129.71,37.82c-.08-.04-.19.08-.31.27l-6.37,11.23c.08.04,6.6-11.08,6.6-11.08.08-.19.15-.39.08-.43Z"/>
    </g>
  </g>
</svg>