<svg width="45" height="44" viewBox="0 0 45 44" fill="none" xmlns="http://www.w3.org/2000/svg">
<path d="M31.9505 31.4652C31.1617 31.4652 30.5196 32.1073 30.5196 32.8975C30.5196 33.5536 30.9669 34.1068 31.6047 34.2634V39.3604L26.4189 42.1897L21.9189 39.3773L21.9217 37.5147C21.9259 37.4864 21.9316 37.4582 21.9316 37.43V3.33747L26.9142 0.893417L28.0755 1.46915C28.0544 1.54818 28.0389 1.63284 28.0389 1.72457C28.0389 2.51338 28.6809 3.15544 29.4711 3.15544C30.2614 3.15544 30.902 2.51338 30.902 1.72457C30.902 0.935753 30.26 0.292281 29.4711 0.292281C29.0915 0.292281 28.7289 0.45456 28.4565 0.742427L26.996 0.0185246C26.9452 -0.00546429 26.8874 -0.0068754 26.838 0.0185246L21.5181 2.62909L18.0919 0.949865C16.853 0.343086 15.384 0.364252 14.1591 1.01054L12.4559 1.91083C12.257 2.01667 12.1808 2.26502 12.2866 2.4654C12.391 2.65872 12.6365 2.73492 12.8397 2.63474L14.5416 1.73444C15.5307 1.21092 16.7231 1.19117 17.7307 1.68365L21.099 3.33747V37.5302C21.0651 38.7141 20.4527 39.7894 19.4621 40.4074L18.353 41.1003C17.2805 41.772 15.923 41.8115 14.8097 41.2047L13.2546 40.358C12.1271 39.7414 11.4258 38.5603 11.4258 37.2748V33.7893C11.4258 33.5635 11.2424 33.3801 11.0166 33.3801C10.7908 33.3801 10.606 33.5635 10.606 33.7893V37.2748C10.606 38.858 11.471 40.3157 12.8623 41.0763L14.4174 41.923C15.7622 42.6553 17.488 42.6045 18.7862 41.7932L19.8953 41.1003C20.3963 40.787 20.8295 40.3679 21.1667 39.8698C21.1724 39.874 21.1766 39.8769 21.1823 39.8811L26.1875 43.0095L26.3032 43.0801C26.3328 43.097 26.3639 43.1069 26.3963 43.1069C26.426 43.1069 26.4556 43.0998 26.4824 43.0857L32.3301 39.8966C32.3879 39.8656 32.4232 39.8049 32.4232 39.74V34.2211C32.9947 34.0207 33.3813 33.493 33.3813 32.8961C33.3813 32.1073 32.7393 31.4638 31.9505 31.4638V31.4652ZM31.9491 32.2653C32.2863 32.2653 32.5615 32.5405 32.5615 32.8777C32.5615 33.215 32.2863 33.4902 31.9491 33.4902C31.6118 33.4902 31.3366 33.215 31.3366 32.8777C31.3366 32.5405 31.6118 32.2653 31.9491 32.2653ZM29.4697 2.33698C29.1311 2.33698 28.8573 2.06182 28.8573 1.72457C28.8573 1.38731 29.1325 1.11214 29.4697 1.11214C29.807 1.11214 30.0807 1.3859 30.0807 1.72457C30.0807 2.06323 29.8056 2.33698 29.4697 2.33698Z" fill="white"/>
<path d="M37.019 11.9481L32.2198 14.9242C31.9559 14.6885 31.6271 14.5601 31.28 14.5601C30.4912 14.5601 29.8491 15.2022 29.8491 15.9924C29.8491 16.7826 30.4912 17.4247 31.28 17.4247C32.0688 17.4247 32.7109 16.7826 32.7109 15.9924C32.7109 15.8682 32.6925 15.744 32.6558 15.6185L37.1164 12.8527L42.0087 15.8654V20.7182L37.1728 23.8523C36.9061 23.5983 36.5688 23.4614 36.2104 23.4614C35.4216 23.4614 34.7796 24.1035 34.7796 24.8937C34.7796 25.6839 35.4216 26.3246 36.2104 26.3246C36.9992 26.3246 37.6413 25.6825 37.6413 24.8937C37.6413 24.7723 37.6201 24.6595 37.5905 24.5579L42.7453 21.2163C42.7961 21.1839 42.8271 21.1274 42.8271 21.0668V15.5084C42.8271 15.4463 42.7947 15.3884 42.7425 15.356L37.2081 11.9496C37.1502 11.9143 37.0783 11.9143 37.0204 11.9496L37.019 11.9481ZM31.8868 16.0051C31.8868 16.3424 31.6116 16.6175 31.2743 16.6175C30.9371 16.6175 30.6619 16.3438 30.6619 16.0051C30.6619 15.6664 30.9371 15.3927 31.2743 15.3927C31.6116 15.3927 31.8868 15.6678 31.8868 16.0051ZM36.8116 24.8881C36.8116 25.2253 36.5364 25.5005 36.1991 25.5005C35.8619 25.5005 35.5867 25.2267 35.5867 24.8881C35.5867 24.5494 35.8619 24.2756 36.1991 24.2756C36.5364 24.2756 36.8116 24.5508 36.8116 24.8881Z" fill="white"/>
<path d="M2.17874 22.4412L5.89985 24.8556C5.96617 24.8965 6.04237 24.9191 6.11998 24.9191C6.25968 24.9191 6.3895 24.8485 6.46288 24.7328C6.58565 24.5451 6.53202 24.2911 6.34294 24.1655L2.62465 21.7554C1.62135 21.1048 1.02304 20.0028 1.02304 18.8075V17.8254C1.02304 16.6147 1.66368 15.4688 2.69379 14.8352L4.06822 13.9886C5.2084 13.2873 6.62375 13.2887 7.75969 13.9942L10.8021 15.8809C10.9911 15.9966 11.2423 15.9387 11.3651 15.7482C11.4836 15.5563 11.4229 15.3037 11.2324 15.1852L8.19149 13.3C6.78885 12.4293 5.04612 12.4265 3.64206 13.2929L2.26623 14.1382C0.993403 14.9213 0.20459 16.3353 0.20459 17.8268V18.809C0.20459 20.2822 0.942602 21.6396 2.18015 22.4426L2.17874 22.4412Z" fill="white"/>
<path d="M25.5173 5.39343C24.7285 5.39343 24.0879 6.03549 24.0879 6.82431C24.0879 7.61312 24.7299 8.25517 25.5173 8.25517C26.3047 8.25517 26.9482 7.61312 26.9482 6.82431C26.9482 6.73682 26.9327 6.65779 26.9144 6.58441L32.0042 3.76642L36.6031 6.58159V8.88453C35.9977 9.06656 35.5871 9.59997 35.5871 10.2279C35.5871 11.0167 36.2291 11.6602 37.0179 11.6602C37.8067 11.6602 38.4488 11.0181 38.4488 10.2279C38.4488 9.60561 38.0255 9.06091 37.4229 8.8817V6.22458C37.4229 6.16249 37.3905 6.10463 37.3383 6.07218L32.1143 2.87319C32.0593 2.83932 31.9901 2.8379 31.9337 2.86895L26.5432 5.85487C26.2695 5.55995 25.904 5.39343 25.5188 5.39343H25.5173ZM26.1255 6.83841C26.1255 7.17567 25.8504 7.45084 25.5131 7.45084C25.1759 7.45084 24.9007 7.17708 24.9007 6.83841C24.9007 6.49975 25.1759 6.22599 25.5131 6.22599C25.8504 6.22599 26.1255 6.49975 26.1255 6.83841ZM37.0165 10.8403C36.6793 10.8403 36.4041 10.5652 36.4041 10.2279C36.4041 9.89066 36.6793 9.6169 37.0165 9.6169C37.3538 9.6169 37.6289 9.89066 37.6289 10.2279C37.6289 10.5652 37.3538 10.8403 37.0165 10.8403Z" fill="white"/>
<path d="M6.01849 11.3526C6.24427 11.3526 6.42771 11.1691 6.42771 10.9434V8.55012C6.42771 7.33656 7.07118 6.18792 8.10553 5.55433L9.28099 4.83324C10.3548 4.17425 11.7109 4.14603 12.8144 4.75704L16.5285 6.81304C16.726 6.92169 16.9744 6.84973 17.083 6.65499C17.1367 6.55904 17.1508 6.44897 17.1197 6.34313C17.0901 6.2373 17.0195 6.14981 16.9236 6.09619L13.2095 4.0402C11.8478 3.28525 10.177 3.32194 8.8506 4.13475L7.67514 4.85582C6.39949 5.63758 5.60645 7.05293 5.60645 8.54871V10.942C5.60645 11.1677 5.78989 11.3512 6.01567 11.3512L6.01849 11.3526Z" fill="white"/>
<path d="M42.6087 22.2605C41.8199 22.2605 41.1793 22.9026 41.1793 23.6928C41.1793 24.3194 41.6054 24.8669 42.2136 25.0433V26.8481L37.4031 30.2418L32.0169 26.9342V21.6933L37.1562 18.8979C37.4187 19.1321 37.7489 19.2605 38.096 19.2605C38.8848 19.2605 39.5269 18.6185 39.5269 17.8282C39.5269 17.038 38.8848 16.3974 38.096 16.3974C37.3072 16.3974 36.6651 17.0394 36.6651 17.8282C36.6651 17.9524 36.6835 18.078 36.7188 18.2036L31.6275 20.9722L27.1204 17.9679V12.7976L30.9854 10.2576C31.2366 10.4481 31.5343 10.5525 31.8405 10.5525C32.6293 10.5525 33.2728 9.91048 33.2728 9.12167C33.2728 8.33285 32.6308 7.6908 31.8405 7.6908C31.0503 7.6908 30.4097 8.33285 30.4097 9.12167C30.4097 9.27971 30.4393 9.43776 30.5 9.59721L26.3809 12.3023C26.3301 12.3348 26.3005 12.3912 26.3005 12.4519V18.3094C26.3005 18.3687 26.3301 18.4251 26.3795 18.4576L31.1957 21.6679V26.961L26.3569 30.7117L26.268 30.7809C26.2243 30.8147 26.1989 30.8669 26.1989 30.922V36.4945C25.5907 36.6709 25.1646 37.217 25.1646 37.8435C25.1646 38.6323 25.8066 39.2744 26.5954 39.2744C27.3842 39.2744 28.0277 38.6323 28.0277 37.8435C28.0277 37.2198 27.6199 36.6878 27.0188 36.5029V31.2367L31.6359 27.6581L37.0123 30.9587V36.1205L35.8269 36.9037C35.5687 36.685 35.2484 36.5664 34.9111 36.5664C34.1223 36.5664 33.4788 37.2085 33.4788 37.9987C33.4788 38.7889 34.1209 39.4282 34.9111 39.4282C35.7013 39.4282 36.342 38.7861 36.342 37.9987C36.342 37.8576 36.3222 37.7193 36.2813 37.5853L37.7531 36.613C37.8025 36.5805 37.8335 36.5241 37.8335 36.4634V30.9417L42.8642 27.3914L42.9615 27.3208C43.0081 27.2869 43.0349 27.2333 43.0349 27.1755V25.032C43.636 24.8471 44.0438 24.3137 44.0438 23.69C44.0438 22.9012 43.4018 22.2577 42.613 22.2577L42.6087 22.2605ZM42.6087 23.0804C42.946 23.0804 43.2212 23.3556 43.2212 23.6928C43.2212 24.0301 42.946 24.3038 42.6087 24.3038C42.2715 24.3038 41.9977 24.0301 41.9977 23.6928C41.9977 23.3556 42.2729 23.0804 42.6087 23.0804ZM38.1002 18.4463C37.763 18.4463 37.4878 18.1711 37.4878 17.8339C37.4878 17.4966 37.763 17.2215 38.1002 17.2215C38.4375 17.2215 38.7127 17.4952 38.7127 17.8339C38.7127 18.1726 38.4375 18.4463 38.1002 18.4463ZM31.8434 9.73551C31.5061 9.73551 31.2309 9.46034 31.2309 9.12308C31.2309 8.78582 31.5061 8.51065 31.8434 8.51065C32.1806 8.51065 32.4558 8.78582 32.4558 9.12308C32.4558 9.46034 32.1806 9.73551 31.8434 9.73551ZM26.5954 38.4757C26.2582 38.4757 25.983 38.2005 25.983 37.8632C25.983 37.526 26.2582 37.2508 26.5954 37.2508C26.9327 37.2508 27.2078 37.5246 27.2078 37.8632C27.2078 38.2019 26.9327 38.4757 26.5954 38.4757ZM35.5264 37.9917C35.5264 38.3289 35.2512 38.6041 34.9139 38.6041C34.5767 38.6041 34.3015 38.3303 34.3015 37.9917C34.3015 37.653 34.5767 37.3792 34.9139 37.3792C35.2512 37.3792 35.5264 37.6544 35.5264 37.9917Z" fill="white"/>
<path d="M7.52829 37.1746C6.58426 36.5185 6.01981 35.439 6.01981 34.2889V32.7635C6.01981 32.1835 5.87729 31.6261 5.65857 31.104C5.71642 31.0984 5.77569 31.1097 5.82508 31.08L11.6375 27.5113C11.6375 27.5113 11.6473 27.5057 11.653 27.5014C11.9253 27.9488 12.2739 28.3368 12.693 28.6614L14.6544 30.1826C15.518 30.8528 16.0133 31.8632 16.0133 32.9568V36.9517C16.0133 37.1774 16.1968 37.3609 16.424 37.3609C16.6511 37.3609 16.8332 37.1774 16.8332 36.9517V32.9568C16.8332 31.6092 16.2222 30.3618 15.1568 29.5349L13.1967 28.0137C12.3317 27.3434 11.8364 26.3316 11.8364 25.2394V23.5475C11.8364 22.3706 12.422 21.277 13.3999 20.6251L14.804 19.6895C16.0119 18.8852 16.7316 17.539 16.7316 16.0869V14.7196C16.7316 13.2379 15.9865 11.8748 14.7405 11.0747L11.1365 8.76325C10.9474 8.64472 10.6948 8.69975 10.5721 8.88743C10.4507 9.07793 10.5057 9.33052 10.6948 9.45329L14.2974 11.7633C15.3092 12.4124 15.9131 13.5173 15.9131 14.7196V16.0869C15.9131 17.2638 15.3289 18.356 14.3496 19.0094L12.9456 19.9449C12.4418 20.2808 12.0453 20.7281 11.7278 21.2206C11.6939 21.174 11.6756 21.119 11.6219 21.0893L5.80815 17.927C5.71078 17.8748 5.60071 17.8635 5.49488 17.8946C5.38904 17.9256 5.30297 17.9962 5.25217 18.0907C5.14492 18.2883 5.2183 18.538 5.41586 18.6453L11.2311 21.8076C11.2819 21.8344 11.3383 21.8443 11.3933 21.8485C11.1647 22.3805 11.0166 22.9478 11.0166 23.5461V25.238C11.0166 25.7658 11.1111 26.2794 11.2988 26.7705C11.2692 26.7804 11.2395 26.7931 11.2113 26.81L5.39751 30.3787C5.36364 30.3985 5.35659 30.4408 5.33119 30.469C5.03062 29.9906 4.6595 29.5546 4.18677 29.2188L2.30435 27.8923C1.37443 27.2376 0.818446 26.1651 0.818446 25.0249V23.2822C0.818446 23.0564 0.635 22.8716 0.409222 22.8716C0.183444 22.8716 0 23.055 0 23.2822V25.0249C0 26.4304 0.684391 27.754 1.83304 28.5626L3.71405 29.8876C4.64539 30.5466 5.20137 31.6205 5.20137 32.7592V34.2847C5.20137 35.7042 5.89705 37.0349 7.06263 37.8421L9.04665 39.2179C9.11438 39.2687 9.19623 39.2955 9.28372 39.2955C9.41778 39.2955 9.54337 39.2292 9.61957 39.1191C9.68165 39.0288 9.70564 38.9202 9.68589 38.8129C9.66613 38.7057 9.60686 38.6111 9.51655 38.5491L7.52829 37.1704V37.1746Z" fill="white"/>
</svg>
