<svg width="512" height="512" viewBox="0 0 512 512" fill="none" xmlns="http://www.w3.org/2000/svg">
<g clip-path="url(#clip0_369_86)">
<path d="M364.796 182.491C363.976 180.152 362.213 178.913 360.302 177.811C362.213 175.747 359.494 173.269 358.539 172.031C354.596 170.792 348.057 169.828 345.474 169.141C345.89 169.141 346.159 169.141 346.025 168.591C346.429 168.591 346.698 168.039 346.563 167.489C348.474 163.084 352.012 160.331 353.372 155.376C356.91 152.349 360.572 149.184 360.168 142.163C358.943 140.925 357.045 141.888 356.763 143.265C355.135 143.54 354.18 144.504 353.91 146.155C351.057 147.118 350.102 149.871 347.653 151.385C342.082 159.643 336.498 167.764 330.657 175.61C328.343 183.318 323.445 188.273 321.534 196.393C318.816 203.55 315.277 210.019 311.334 215.938C305.628 230.113 276.791 275.396 269.175 287.784C254.481 312.834 233.799 331.966 227.542 365.548C225.239 369.816 222.105 373.531 219.521 377.661C216.117 381.239 217.892 381.514 211.77 390.185C211.219 392.388 208.917 393.489 208.096 395.554C203.333 400.371 197.627 404.225 191.908 408.216L188.235 406.564C183.472 396.242 180.484 387.433 185.517 382.754L186.055 382.34C188.235 381.652 190.415 381.515 192.594 380.827C195.031 380.138 197.762 379.175 198.704 376.697C199.525 374.633 198.704 372.292 197.762 370.228C196.402 367.2 194.762 364.309 192.998 361.557C192.313 360.456 191.639 359.354 191.504 358.117C191.504 356.878 192.178 355.364 191.504 354.262C190.953 353.299 189.729 352.885 189.594 351.923C189.594 351.51 189.729 350.959 189.864 350.546C190.549 347.518 186.337 345.316 186.606 342.288C186.606 341.049 187.415 340.086 187.966 338.985C188.504 337.883 188.639 336.369 187.696 335.544C187.28 335.269 186.876 335.131 186.337 334.855C182.663 333.617 178.99 331.828 176.259 329.075C173.541 326.322 171.643 322.331 172.182 318.339C172.182 317.789 172.316 317.101 172.182 316.55C172.047 315.724 171.373 315.173 170.822 314.623C170.822 314.623 159.128 296.592 132.324 303.061C119.957 305.952 76.0213 311.32 83.0867 364.172C87.1643 388.259 125.259 409.317 135.324 410.419C117.508 416.611 75.4704 420.741 64.7315 436.156C54.115 451.572 22.0207 494.239 12.4941 498.782C-1.78367 502.91 -17.9716 512.132 -31.1705 524.933C-41.7796 535.255 -58.919 548.193 -69.1204 558.792C-69.5282 558.929 -69.8 559.204 -69.9359 559.479C-74.0171 561.681 -78.914 562.37 -83.6748 563.47C-88.2998 564.572 -93.3325 565.261 -97.2767 566.773C-102.311 568.701 -104.351 572.83 -107.207 576.822C-109.247 579.574 -111.287 581.914 -112.648 584.943C-113.872 586.18 -114.552 587.832 -115.505 589.209C-116.456 590.585 -117.816 591.687 -118.633 593.063C-119.449 594.301 -119.856 595.815 -120.537 597.192C-121.081 598.431 -122.577 599.945 -121.762 601.459C-120.537 601.045 -119.313 601.459 -117.816 600.495C-116.456 599.807 -115.505 598.568 -114.824 597.329C-113.192 595.127 -111.832 592.924 -109.383 590.86C-107.207 589.209 -106.934 587.282 -104.894 585.63C-105.983 588.108 -108.159 590.448 -110.472 592.787C-110.744 594.576 -111.559 596.228 -112.92 597.742C-112.92 599.256 -115.369 601.321 -113.465 602.147C-109.111 603.661 -106.8 597.604 -105.983 595.403C-102.446 593.063 -101.766 590.035 -97.9574 587.832C-97.0048 587.695 -98.2293 588.383 -97.9574 588.934C-98.637 589.346 -98.5011 590.035 -99.3178 590.448C-99.5897 591.412 -100.542 592.237 -100.269 593.338C-101.358 594.99 -103.126 597.881 -101.086 598.981C-98.637 598.706 -96.8688 596.229 -96.0533 594.577C-96.0533 592.512 -92.9248 591.135 -92.9248 589.071C-91.7003 589.346 -90.8847 587.97 -90.2038 587.282C-89.6602 585.768 -87.6202 587.282 -86.2597 586.318C-84.6275 585.493 -83.1311 585.63 -81.3617 584.254C-75.3775 583.841 -69.2563 582.74 -62.4554 578.611C-60.959 577.51 -59.7346 576.408 -58.6472 575.17C-33.6183 563.195 10.5838 546.816 28.131 523.556C57.115 505.526 86.4908 488.045 94.646 477.31C114.507 531.814 132.74 566.223 129.202 602.147C116.001 636.006 84.997 664.358 75.3357 800.482C67.1805 861.042 35.2086 878.109 28.131 913.482C21.0656 948.993 28.682 989.457 7.32668 1030.06C-3.28977 1051.12 -26.139 1059.38 -27.2288 1072.73C-28.1717 1086.08 -32.2579 1113.33 -28.7227 1134.39C-25.1839 1155.45 -10.9062 1165.77 -6.96329 1162.19C-4.36734 1158.61 2.69809 1128.75 2.15931 1117.05C10.7308 1116.5 14.8084 1130.95 20.3799 1142.23C25.9637 1153.52 32.0862 1170.04 38.6128 1169.49C45.1394 1168.94 48.2619 1158.2 41.6006 1136.59C34.9393 1114.98 30.9963 1083.74 42.5557 1053.87C69.4825 999.367 118.732 895.177 118.732 895.177C133.01 878.246 133.965 882.376 139.536 847.967C164.431 803.785 219.79 728.773 218.701 639.859C216.668 621.416 214.623 606 214.623 597.192C215.578 580.263 235.978 549.432 235.978 496.992C235.978 466.574 236.529 445.653 236.799 435.743C239.382 428.862 241.832 422.118 245.909 416.613C251.077 406.151 252.166 401.884 252.987 400.233C256.244 394.315 255.436 392.112 256.93 384.405C261.828 374.908 265.905 364.723 273.387 357.84C280.465 342.838 286.575 326.322 292.159 309.393C297.73 292.739 325.477 243.74 333.241 229.013C335.408 227.223 338.139 225.985 340.576 224.471C345.755 219.102 350.506 213.46 353.641 206.027C356.629 203.825 358.123 200.109 360.988 197.906C361.527 193.64 364.796 192.263 365.47 188.135C365.751 185.794 363.572 185.794 364.38 182.904L364.796 182.491Z" fill="white"/>
<path d="M422.597 1.91164L426.406 41.5511C426.406 41.5511 426.81 42.7899 427.361 43.0651L461.635 62.3343C462.994 63.1601 462.994 65.2247 461.5 65.9128L425.451 81.7411C425.451 81.7411 424.361 82.5669 424.361 83.1175L416.879 122.068C416.61 123.72 414.565 124.271 413.487 123.032L387.503 93.3027C387.503 93.3027 386.413 92.6145 385.728 92.6145L346.69 97.4317C345.062 97.5694 343.972 95.9177 344.792 94.4038L364.789 60.1321C364.789 60.1321 365.193 58.8934 364.789 58.3428L348.184 22.2819C347.511 20.768 348.87 19.1162 350.364 19.5292L388.728 28.2003C388.728 28.2003 389.952 28.2003 390.491 27.6498L419.193 0.535257C420.418 -0.565846 422.328 0.12235 422.463 1.77399L422.597 1.91164Z" fill="white"/>
<path d="M253.631 150.159L252.406 128.138C252.406 128.138 252.137 127.449 251.868 127.311L233.231 115.75C232.41 115.337 232.557 114.098 233.365 113.823L253.765 105.84C253.765 105.84 254.317 105.427 254.451 105.014L259.484 83.5427C259.753 82.7169 260.843 82.4416 261.394 83.1298L275.133 100.334C275.133 100.334 275.672 100.747 276.076 100.747L297.848 98.958C298.79 98.958 299.342 99.9215 298.791 100.61L286.962 119.191C286.962 119.191 286.692 119.879 286.962 120.155L295.399 140.524C295.803 141.351 294.982 142.313 294.174 142.038L273.088 136.396C273.088 136.396 272.402 136.396 272.133 136.671L255.541 150.985C254.855 151.536 253.765 150.985 253.765 150.159H253.631Z" fill="white"/>
<path d="M283.688 36.734C283.688 36.734 283.284 36.734 283.149 36.5963C282.733 36.3211 282.598 35.9082 282.598 35.4953L283.149 29.3016L278.386 25.3101C278.386 25.3101 277.981 24.6219 277.981 24.209C277.981 23.7961 278.386 23.5208 278.79 23.3831L284.777 22.0068L287.092 16.2261C287.092 16.2261 287.631 15.5378 288.047 15.5378C288.451 15.5378 288.855 15.6755 289.124 16.0885L292.259 21.4563L298.382 21.8692C298.382 21.8692 299.19 22.1445 299.337 22.5573C299.472 22.9703 299.337 23.3831 299.19 23.7961L295.112 28.4758L296.606 34.5318C296.606 34.5318 296.606 35.3576 296.202 35.6328C295.933 35.9082 295.382 36.0458 294.978 35.7705L289.271 33.2931L284.092 36.5963C284.092 36.5963 283.688 36.734 283.553 36.734H283.688Z" fill="white"/>
<path d="M496.295 89.9979C496.295 89.9979 495.891 89.9979 495.756 89.8602C495.352 89.585 495.205 89.1721 495.205 88.7592L495.756 82.5655L490.993 78.574C490.993 78.574 490.589 77.8858 490.589 77.4729C490.589 77.06 490.993 76.7847 491.397 76.6471L497.385 75.2707L499.699 69.49C499.699 69.49 500.25 68.8018 500.654 68.8018C501.058 68.8018 501.463 68.9394 501.744 69.3524L504.867 74.7201L510.989 75.1331C510.989 75.1331 511.81 75.4084 511.944 75.8213C512.079 76.2342 511.944 76.6471 511.81 77.06L507.72 81.7397L509.226 87.7958C509.226 87.7958 509.226 88.6216 508.81 88.8968C508.54 89.1721 508.001 89.3097 507.585 89.0344L501.879 86.557L496.711 89.8602C496.711 89.8602 496.295 89.9979 496.16 89.9979H496.295Z" fill="white"/>
<path d="M416.335 232.459C416.335 232.459 415.796 232.459 415.515 232.184C414.976 231.908 414.707 231.221 414.707 230.532L415.515 221.311L408.449 215.392C408.449 215.392 407.764 214.291 407.898 213.741C408.033 213.053 408.584 212.639 409.123 212.502L418.111 210.437L421.503 201.767C421.503 201.767 422.323 200.803 422.862 200.665C423.548 200.665 424.086 200.94 424.356 201.491L429.119 209.473L438.242 210.025C438.242 210.025 439.466 210.437 439.601 211.125C439.87 211.676 439.601 212.364 439.319 212.914L433.209 219.934L435.511 229.018C435.511 229.018 435.511 230.257 434.972 230.669C434.433 231.083 433.882 231.221 433.209 230.946L424.772 227.229L417.021 232.184C417.021 232.184 416.47 232.459 416.066 232.459H416.335Z" fill="white"/>
<path d="M472.116 157.99L462.589 147.667C462.589 147.667 462.185 147.392 462.051 147.392L448.177 149.457C448.177 149.457 447.222 148.906 447.491 148.355L454.299 135.968C454.299 135.968 454.299 135.555 454.299 135.28L448.177 122.617C448.177 122.617 448.311 121.516 448.997 121.654L462.736 124.407C462.736 124.407 463.14 124.407 463.41 124.268L473.475 114.358C473.475 114.358 474.565 114.221 474.7 114.772L476.328 128.811C476.328 128.811 476.463 129.223 476.745 129.362L489.124 135.968C489.124 135.968 489.663 136.931 489.124 137.206L476.463 143.125C476.463 143.125 476.059 143.4 476.059 143.675L473.61 157.577C473.61 157.577 472.802 158.402 472.385 157.99H472.116Z" fill="white"/>
<path d="M325.334 390.469C324.526 389.919 407.217 245.262 407.217 245.262C408.588 242.785 410.486 241.271 411.307 241.821C412.115 242.371 411.711 244.711 410.351 247.188C410.351 247.188 326.154 391.019 325.334 390.469Z" fill="white"/>
<path d="M181.686 235.216L235.282 140.108C236.237 138.456 237.462 137.493 238 137.768C238.552 138.181 238.27 139.695 237.327 141.347C237.327 141.347 182.237 235.491 181.686 235.077V235.216Z" fill="white"/>
<path d="M311.31 165.986L333.755 125.935C334.159 125.246 334.575 124.833 334.845 124.971C335.114 125.108 334.845 125.797 334.575 126.485C334.575 126.485 311.579 166.124 311.31 165.986Z" fill="white"/>
</g>
<defs>
<clipPath id="clip0_369_86">
<rect width="512" height="512" fill="white"/>
</clipPath>
</defs>
</svg>
